<svg width="77" height="14" viewBox="0 0 77 14" fill="none" xmlns="http://www.w3.org/2000/svg">
<path d="M0.152344 8.69922C0.207031 8.24609 0.304688 7.81641 0.445312 7.41016C0.585938 6.99609 0.757812 6.59766 0.960938 6.21484C1.16406 5.82422 1.39062 5.44141 1.64062 5.06641C1.89062 4.69141 2.15625 4.3125 2.4375 3.92969C2.60156 3.71875 2.78125 3.50391 2.97656 3.28516C3.17188 3.06641 3.38281 2.86719 3.60938 2.6875C3.83594 2.50781 4.07812 2.36328 4.33594 2.25391C4.60156 2.13672 4.87891 2.07812 5.16797 2.07812C5.32422 2.07812 5.44531 2.08984 5.53125 2.11328C5.61719 2.12891 5.67969 2.16797 5.71875 2.23047C5.76562 2.28516 5.79297 2.36719 5.80078 2.47656C5.80859 2.58594 5.80859 2.72656 5.80078 2.89844C5.80078 3.09375 5.76562 3.29297 5.69531 3.49609C5.625 3.69922 5.52734 3.89062 5.40234 4.07031C5.27734 4.25 5.12891 4.41016 4.95703 4.55078C4.78516 4.68359 4.60156 4.78125 4.40625 4.84375V4.67969C4.40625 4.51562 4.44141 4.35938 4.51172 4.21094C4.58984 4.0625 4.67578 3.91406 4.76953 3.76562C4.86328 3.60938 4.94531 3.44922 5.01562 3.28516C5.09375 3.12109 5.13281 2.94531 5.13281 2.75781C5.04688 2.75781 4.97266 2.75391 4.91016 2.74609C4.84766 2.73047 4.78906 2.72266 4.73438 2.72266C4.6875 2.71484 4.63672 2.72266 4.58203 2.74609C4.53516 2.76172 4.47656 2.80078 4.40625 2.86328C4.02344 3.17578 3.62891 3.54297 3.22266 3.96484C2.82422 4.37891 2.46094 4.82812 2.13281 5.3125C1.80469 5.79688 1.53516 6.30469 1.32422 6.83594C1.12109 7.35938 1.01953 7.88672 1.01953 8.41797C1.01953 8.44141 1.01953 8.48047 1.01953 8.53516C1.02734 8.58984 1.03125 8.64453 1.03125 8.69922C1.03906 8.75391 1.04688 8.80469 1.05469 8.85156C1.0625 8.89844 1.06641 8.92578 1.06641 8.93359C1.15234 9.01953 1.25391 9.07031 1.37109 9.08594C1.49609 9.10156 1.58984 9.10938 1.65234 9.10938C1.98828 9.10938 2.30078 9.05078 2.58984 8.93359C2.88672 8.81641 3.17578 8.69141 3.45703 8.55859C3.73828 8.41797 4.01953 8.28906 4.30078 8.17188C4.58984 8.05469 4.89453 7.99609 5.21484 7.99609C5.21484 8.12109 5.14062 8.26172 4.99219 8.41797C4.85156 8.56641 4.66406 8.71484 4.42969 8.86328C4.20312 9.01172 3.94922 9.15625 3.66797 9.29688C3.38672 9.42969 3.10938 9.55078 2.83594 9.66016C2.57031 9.76953 2.32422 9.85547 2.09766 9.91797C1.87891 9.98047 1.71094 10.0117 1.59375 10.0117C1.42188 10.0117 1.25 9.98047 1.07812 9.91797C0.90625 9.84766 0.75 9.75391 0.609375 9.63672C0.476562 9.51953 0.367188 9.38281 0.28125 9.22656C0.195312 9.0625 0.152344 8.88672 0.152344 8.69922ZM5.39062 9.23828C5.46094 8.79297 5.59375 8.38281 5.78906 8.00781C5.98438 7.63281 6.20703 7.30859 6.45703 7.03516C6.71484 6.75391 6.99219 6.52344 7.28906 6.34375C7.58594 6.16406 7.875 6.05078 8.15625 6.00391C8.4375 5.94922 8.69531 5.96094 8.92969 6.03906C9.17188 6.11719 9.36719 6.27344 9.51562 6.50781C9.51562 6.6875 9.47266 6.85938 9.38672 7.02344C9.30859 7.1875 9.21875 7.35156 9.11719 7.51562C9.02344 7.67969 8.93359 7.84766 8.84766 8.01953C8.76953 8.19141 8.73047 8.375 8.73047 8.57031C8.73047 8.77344 8.77344 8.9375 8.85938 9.0625C8.95312 9.17969 9.11328 9.23828 9.33984 9.23828C9.52734 9.23828 9.70703 9.21094 9.87891 9.15625C10.0586 9.10156 10.2383 9.07422 10.418 9.07422C10.4492 9.07422 10.5 9.07812 10.5703 9.08594C10.6484 9.08594 10.6992 9.08594 10.7227 9.08594C10.6289 9.21875 10.5078 9.33203 10.3594 9.42578C10.2109 9.51953 10.0547 9.60156 9.89062 9.67188C9.72656 9.73438 9.55469 9.78125 9.375 9.8125C9.20312 9.84375 9.04297 9.85938 8.89453 9.85938C8.75391 9.85938 8.62891 9.82812 8.51953 9.76562C8.41016 9.70312 8.31641 9.62109 8.23828 9.51953C8.16016 9.41797 8.09766 9.30469 8.05078 9.17969C8.01172 9.04688 7.99219 8.91797 7.99219 8.79297C7.875 8.92578 7.74609 9.06641 7.60547 9.21484C7.47266 9.35547 7.32812 9.48438 7.17188 9.60156C7.02344 9.71875 6.85938 9.81641 6.67969 9.89453C6.50781 9.97266 6.32812 10.0117 6.14062 10.0117C5.9375 10.0117 5.76172 9.9375 5.61328 9.78906C5.46484 9.63281 5.39062 9.44922 5.39062 9.23828ZM6.16406 8.875C6.16406 8.9375 6.16406 9.00781 6.16406 9.08594C6.17188 9.16406 6.22266 9.21484 6.31641 9.23828C6.51172 9.19141 6.73438 9.08984 6.98438 8.93359C7.23438 8.76953 7.46875 8.58203 7.6875 8.37109C7.90625 8.15234 8.08984 7.92188 8.23828 7.67969C8.38672 7.42969 8.46094 7.19141 8.46094 6.96484C8.46094 6.94922 8.45703 6.92578 8.44922 6.89453C8.44922 6.85547 8.44922 6.82812 8.44922 6.8125C8.18359 6.8125 7.91406 6.86719 7.64062 6.97656C7.36719 7.08594 7.12109 7.23828 6.90234 7.43359C6.68359 7.62109 6.50391 7.83984 6.36328 8.08984C6.23047 8.33984 6.16406 8.60156 6.16406 8.875ZM16.0195 10.0117C15.8711 10.0117 15.7344 9.98438 15.6094 9.92969C15.4922 9.875 15.3945 9.79688 15.3164 9.69531C15.2383 9.59375 15.1836 9.48047 15.1523 9.35547C15.1211 9.22266 15.125 9.08203 15.1641 8.93359C15.1641 8.68359 15.207 8.45312 15.293 8.24219C15.3867 8.02344 15.4883 7.81641 15.5977 7.62109C15.7148 7.41797 15.8164 7.21875 15.9023 7.02344C15.9961 6.82031 16.043 6.60547 16.043 6.37891C15.8711 6.37891 15.6875 6.43359 15.4922 6.54297C15.2969 6.65234 15.0977 6.79688 14.8945 6.97656C14.6992 7.15625 14.5039 7.35938 14.3086 7.58594C14.1211 7.80469 13.9414 8.02734 13.7695 8.25391C13.6055 8.47266 13.4609 8.68359 13.3359 8.88672C13.2188 9.08984 13.1289 9.25781 13.0664 9.39062C13.0508 9.39844 13.0117 9.40625 12.9492 9.41406C12.8867 9.41406 12.8477 9.41406 12.832 9.41406C12.707 9.47656 12.6289 9.47656 12.5977 9.41406C12.5742 9.34375 12.5742 9.23828 12.5977 9.09766C12.6289 8.95703 12.6758 8.80078 12.7383 8.62891C12.8008 8.44922 12.8594 8.28125 12.9141 8.125C12.9766 7.96094 13.0234 7.82812 13.0547 7.72656C13.0859 7.61719 13.0898 7.5625 13.0664 7.5625C13.0898 7.53125 13.1172 7.48047 13.1484 7.41016C13.1797 7.33984 13.2109 7.26562 13.2422 7.1875C13.2734 7.10938 13.3008 7.03906 13.3242 6.97656C13.3477 6.90625 13.3594 6.85156 13.3594 6.8125C13.3594 6.74219 13.332 6.69922 13.2773 6.68359C13.2305 6.66016 13.1836 6.64844 13.1367 6.64844C12.9961 6.57031 12.8438 6.61719 12.6797 6.78906C12.5234 6.95312 12.3516 7.19141 12.1641 7.50391C11.9844 7.80859 11.7852 8.16016 11.5664 8.55859C11.3555 8.94922 11.1211 9.32812 10.8633 9.69531C10.6836 9.69531 10.5469 9.67188 10.4531 9.625C10.3594 9.57812 10.3125 9.46094 10.3125 9.27344C10.375 9.1875 10.4688 9.02734 10.5938 8.79297C10.7188 8.55078 10.8594 8.28516 11.0156 7.99609C11.1719 7.70703 11.3359 7.41406 11.5078 7.11719C11.6875 6.82031 11.8555 6.57031 12.0117 6.36719C12.1758 6.15625 12.3203 6.01562 12.4453 5.94531C12.5781 5.86719 12.6836 5.90234 12.7617 6.05078C12.8945 5.96484 13.0391 5.89062 13.1953 5.82812C13.3594 5.76562 13.5234 5.73438 13.6875 5.73438C13.7969 5.73438 13.8867 5.76953 13.957 5.83984C14.0352 5.90234 14.0938 5.98438 14.1328 6.08594C14.1797 6.17969 14.2148 6.28125 14.2383 6.39062C14.2617 6.49219 14.2734 6.58203 14.2734 6.66016C14.3594 6.60547 14.5 6.51172 14.6953 6.37891C14.8984 6.23828 15.1133 6.09766 15.3398 5.95703C15.5742 5.81641 15.8008 5.69531 16.0195 5.59375C16.2461 5.48438 16.4297 5.42969 16.5703 5.42969C16.6953 5.42969 16.8008 5.47656 16.8867 5.57031C16.9805 5.65625 17.0273 5.76562 17.0273 5.89844C16.7461 6.58594 16.5234 7.13672 16.3594 7.55078C16.2031 7.96484 16.0977 8.28906 16.043 8.52344C15.9961 8.75 15.9961 8.91406 16.043 9.01562C16.0977 9.10938 16.1914 9.18359 16.3242 9.23828C16.5352 9.23828 16.7383 9.20312 16.9336 9.13281C17.1289 9.0625 17.3203 8.98438 17.5078 8.89844C17.7031 8.8125 17.8984 8.73438 18.0938 8.66406C18.2891 8.59375 18.4961 8.55859 18.7148 8.55859C18.7148 8.64453 18.6914 8.72656 18.6445 8.80469C18.6055 8.875 18.543 8.92969 18.457 8.96875C18.3945 9.00781 18.2812 9.07031 18.1172 9.15625C17.9609 9.23438 17.7891 9.32031 17.6016 9.41406C17.4141 9.5 17.2344 9.58594 17.0625 9.67188C16.8984 9.75781 16.7812 9.81641 16.7109 9.84766C16.5547 9.91797 16.4336 9.96484 16.3477 9.98828C16.2695 10.0039 16.1602 10.0117 16.0195 10.0117ZM16.9336 13.2812C16.9336 13.2734 16.9375 13.2578 16.9453 13.2344C16.9453 13.2109 16.9453 13.1953 16.9453 13.1875C16.9531 13.1641 16.9648 13.1289 16.9805 13.082C16.9961 13.043 17.0117 13 17.0273 12.9531C17.043 12.9062 17.0586 12.8594 17.0742 12.8125C17.0898 12.7734 17.1016 12.7461 17.1094 12.7305C17.1562 12.6211 17.2344 12.4453 17.3438 12.2031C17.4531 11.9688 17.5781 11.6992 17.7188 11.3945C17.8594 11.0977 18.0078 10.7852 18.1641 10.457C18.3125 10.1289 18.457 9.81641 18.5977 9.51953C18.7383 9.21484 18.8633 8.94531 18.9727 8.71094C19.0898 8.46875 19.1758 8.28906 19.2305 8.17188C19.332 8.00781 19.4727 7.81641 19.6523 7.59766C19.8398 7.37891 20.0469 7.15625 20.2734 6.92969C20.5 6.70312 20.7422 6.48438 21 6.27344C21.2656 6.05469 21.5234 5.86328 21.7734 5.69922C22.0312 5.52734 22.2812 5.39062 22.5234 5.28906C22.7656 5.17969 22.9805 5.125 23.168 5.125C23.4492 5.125 23.6484 5.17578 23.7656 5.27734C23.8828 5.37891 23.9414 5.58594 23.9414 5.89844C23.9414 6.23438 23.875 6.57031 23.7422 6.90625C23.6172 7.23438 23.4453 7.54688 23.2266 7.84375C23.0078 8.14062 22.75 8.41016 22.4531 8.65234C22.1641 8.89453 21.8555 9.09375 21.5273 9.25C21.207 9.40625 20.875 9.51562 20.5312 9.57812C20.1875 9.63281 19.8555 9.62109 19.5352 9.54297L19.3828 9.69531L17.8594 13.4922C17.8359 13.5625 17.7695 13.6055 17.6602 13.6211C17.5508 13.6445 17.4609 13.6562 17.3906 13.6562C17.2891 13.6562 17.1875 13.6211 17.0859 13.5508C16.9844 13.4883 16.9336 13.3984 16.9336 13.2812ZM22.418 7.57422C22.7852 7.18359 23.0234 6.875 23.1328 6.64844C23.2422 6.41406 23.2656 6.25 23.2031 6.15625C23.1406 6.0625 23.0156 6.02734 22.8281 6.05078C22.6406 6.07422 22.4297 6.14062 22.1953 6.25C21.9609 6.35938 21.7227 6.50391 21.4805 6.68359C21.2461 6.86328 21.0508 7.05859 20.8945 7.26953C20.8242 7.34766 20.7383 7.45312 20.6367 7.58594C20.5352 7.71094 20.4336 7.83984 20.332 7.97266C20.2383 8.09766 20.1562 8.21094 20.0859 8.3125C20.0156 8.41406 19.9805 8.47266 19.9805 8.48828V8.73438C20.5195 8.73438 20.9805 8.65625 21.3633 8.5C21.7461 8.33594 22.0977 8.02734 22.418 7.57422ZM24.4336 9.39062C24.3008 9.09375 24.2422 8.80469 24.2578 8.52344C24.2734 8.23438 24.3359 7.96484 24.4453 7.71484C24.5625 7.45703 24.7109 7.22656 24.8906 7.02344C25.0781 6.8125 25.2773 6.63281 25.4883 6.48438C25.6992 6.32812 25.9102 6.21094 26.1211 6.13281C26.3398 6.05469 26.5312 6.02344 26.6953 6.03906C26.8594 6.04688 26.9883 6.10547 27.082 6.21484C27.1758 6.32422 27.207 6.49219 27.1758 6.71875C27.1758 7.02344 27.0781 7.28906 26.8828 7.51562C26.6953 7.74219 26.4844 7.94531 26.25 8.125C26.0234 8.30469 25.8125 8.46875 25.6172 8.61719C25.4297 8.75781 25.3359 8.89062 25.3359 9.01562C25.3359 9.08594 25.375 9.14062 25.4531 9.17969C25.5391 9.21875 25.6367 9.25 25.7461 9.27344C25.8555 9.28906 25.9648 9.30078 26.0742 9.30859C26.1836 9.31641 26.2617 9.32422 26.3086 9.33203C27.043 9.17578 27.5938 9.08203 27.9609 9.05078C28.3281 9.01172 28.5586 9.01562 28.6523 9.0625C28.7461 9.10156 28.7266 9.16797 28.5938 9.26172C28.4688 9.34766 28.2734 9.44141 28.0078 9.54297C27.7422 9.63672 27.4336 9.72266 27.082 9.80078C26.7305 9.87891 26.3828 9.92578 26.0391 9.94141C25.6953 9.94922 25.375 9.91406 25.0781 9.83594C24.7891 9.75781 24.5742 9.60938 24.4336 9.39062ZM26.4844 6.71875C26.3281 6.71875 26.1797 6.76172 26.0391 6.84766C25.8984 6.93359 25.7695 7.04297 25.6523 7.17578C25.543 7.30078 25.4492 7.44141 25.3711 7.59766C25.293 7.74609 25.2344 7.88672 25.1953 8.01953C25.2109 8.02734 25.2227 8.03125 25.2305 8.03125H25.2656C25.375 8.03125 25.5 7.98438 25.6406 7.89062C25.7812 7.79688 25.9141 7.68359 26.0391 7.55078C26.1641 7.41016 26.2695 7.26562 26.3555 7.11719C26.4414 6.96875 26.4844 6.83594 26.4844 6.71875ZM33.2175 11.2422C32.8659 11.2422 32.5847 11.1602 32.3738 10.9961C32.1628 10.832 31.9988 10.6133 31.8816 10.3398C31.7722 10.0742 31.698 9.76953 31.6589 9.42578C31.6198 9.08203 31.5925 8.73047 31.5769 8.37109C31.5691 8.01172 31.5613 7.66406 31.5534 7.32812C31.5534 6.98438 31.53 6.68359 31.4831 6.42578C31.4363 6.16797 31.3581 5.96484 31.2488 5.81641C31.1472 5.66016 30.987 5.59375 30.7683 5.61719C30.7136 5.71875 30.6316 5.87109 30.5222 6.07422C30.4206 6.27734 30.2995 6.50781 30.1589 6.76562C30.0183 7.02344 29.8698 7.29688 29.7136 7.58594C29.5652 7.875 29.4206 8.14844 29.28 8.40625C29.1394 8.66406 29.0105 8.89844 28.8933 9.10938C28.7839 9.3125 28.7019 9.46484 28.6472 9.56641C28.5847 9.67578 28.5417 9.76172 28.5183 9.82422C28.4948 9.87891 28.4675 9.92578 28.4363 9.96484C28.4128 9.99609 28.3777 10.0156 28.3308 10.0234C28.2917 10.0312 28.2292 10.0352 28.1433 10.0352C27.987 10.0352 27.8777 10.0117 27.8152 9.96484C27.7527 9.91016 27.7214 9.80469 27.7214 9.64844C27.8542 9.14844 28.03 8.65234 28.2488 8.16016C28.4753 7.66016 28.7253 7.16797 28.9988 6.68359C29.2722 6.19141 29.5613 5.70703 29.8659 5.23047C30.1706 4.74609 30.4714 4.26953 30.7683 3.80078C30.9558 3.51953 31.1745 3.19531 31.4245 2.82812C31.6745 2.45312 31.9519 2.10156 32.2566 1.77344C32.5691 1.4375 32.905 1.15625 33.2644 0.929688C33.6316 0.703125 34.0222 0.589844 34.4363 0.589844C34.5847 0.582031 34.7214 0.605469 34.8464 0.660156C34.9792 0.707031 35.0886 0.78125 35.1745 0.882812C35.2605 0.984375 35.323 1.10156 35.362 1.23438C35.4011 1.36719 35.405 1.51172 35.3738 1.66797C35.3738 2.05078 35.2917 2.42188 35.1277 2.78125C34.9714 3.13281 34.7722 3.46094 34.53 3.76562C34.2878 4.07031 34.0261 4.34766 33.7448 4.59766C33.4714 4.84766 33.2136 5.0625 32.9714 5.24219C32.7292 5.42188 32.5261 5.56641 32.362 5.67578C32.2058 5.77734 32.1277 5.83203 32.1277 5.83984C32.1277 5.93359 32.1277 6.11328 32.1277 6.37891C32.1355 6.63672 32.1472 6.93359 32.1628 7.26953C32.1863 7.60547 32.2175 7.96094 32.2566 8.33594C32.2956 8.70312 32.3464 9.05078 32.4089 9.37891C32.4792 9.69922 32.5652 9.97266 32.6667 10.1992C32.7761 10.4258 32.905 10.5664 33.0534 10.6211C33.0769 10.6289 33.1316 10.6406 33.2175 10.6562C33.3034 10.6719 33.3972 10.6875 33.4988 10.7031C33.6081 10.7266 33.7058 10.7422 33.7917 10.75C33.8855 10.7656 33.9441 10.7773 33.9675 10.7852C33.9831 10.793 34.0105 10.8164 34.0495 10.8555C34.0886 10.8945 34.112 10.9219 34.1198 10.9375C33.9402 11.0781 33.7917 11.1641 33.6745 11.1953C33.5573 11.2266 33.405 11.2422 33.2175 11.2422ZM31.2136 4.58594C31.2136 4.70312 31.2331 4.79297 31.2722 4.85547C31.3113 4.91016 31.3659 4.94922 31.4363 4.97266C31.5066 4.99609 31.5847 5.01172 31.6706 5.01953C31.7644 5.01953 31.862 5.01953 31.9636 5.01953C32.2761 5.01953 32.5886 4.91016 32.9011 4.69141C33.2136 4.46484 33.4948 4.19141 33.7448 3.87109C34.0027 3.54297 34.2097 3.19531 34.3659 2.82812C34.5222 2.46094 34.6003 2.13672 34.6003 1.85547C34.6003 1.77734 34.6003 1.69922 34.6003 1.62109C34.6003 1.54297 34.5925 1.47266 34.5769 1.41016C34.5613 1.33984 34.53 1.28516 34.4831 1.24609C34.4363 1.20703 34.362 1.1875 34.2605 1.1875C34.0808 1.1875 33.8816 1.25 33.6628 1.375C33.4441 1.49219 33.2214 1.64844 32.9948 1.84375C32.7683 2.03906 32.5456 2.26172 32.3269 2.51172C32.1159 2.75391 31.9284 3.00391 31.7644 3.26172C31.6003 3.51172 31.4675 3.75391 31.3659 3.98828C31.2644 4.22266 31.2136 4.42188 31.2136 4.58594ZM34.6355 9.39062C34.5027 9.09375 34.4441 8.80469 34.4597 8.52344C34.4753 8.23438 34.5378 7.96484 34.6472 7.71484C34.7644 7.45703 34.9128 7.22656 35.0925 7.02344C35.28 6.8125 35.4792 6.63281 35.6902 6.48438C35.9011 6.32812 36.112 6.21094 36.323 6.13281C36.5417 6.05469 36.7331 6.02344 36.8972 6.03906C37.0612 6.04688 37.1902 6.10547 37.2839 6.21484C37.3777 6.32422 37.4089 6.49219 37.3777 6.71875C37.3777 7.02344 37.28 7.28906 37.0847 7.51562C36.8972 7.74219 36.6862 7.94531 36.4519 8.125C36.2253 8.30469 36.0144 8.46875 35.8191 8.61719C35.6316 8.75781 35.5378 8.89062 35.5378 9.01562C35.5378 9.08594 35.5769 9.14062 35.655 9.17969C35.7409 9.21875 35.8386 9.25 35.948 9.27344C36.0573 9.28906 36.1667 9.30078 36.2761 9.30859C36.3855 9.31641 36.4636 9.32422 36.5105 9.33203C37.2448 9.17578 37.7956 9.08203 38.1628 9.05078C38.53 9.01172 38.7605 9.01562 38.8542 9.0625C38.948 9.10156 38.9284 9.16797 38.7956 9.26172C38.6706 9.34766 38.4753 9.44141 38.2097 9.54297C37.9441 9.63672 37.6355 9.72266 37.2839 9.80078C36.9323 9.87891 36.5847 9.92578 36.2409 9.94141C35.8972 9.94922 35.5769 9.91406 35.28 9.83594C34.9909 9.75781 34.7761 9.60938 34.6355 9.39062ZM36.6862 6.71875C36.53 6.71875 36.3816 6.76172 36.2409 6.84766C36.1003 6.93359 35.9714 7.04297 35.8542 7.17578C35.7448 7.30078 35.6511 7.44141 35.573 7.59766C35.4948 7.74609 35.4362 7.88672 35.3972 8.01953C35.4128 8.02734 35.4245 8.03125 35.4323 8.03125H35.4675C35.5769 8.03125 35.7019 7.98438 35.8425 7.89062C35.9831 7.79688 36.1159 7.68359 36.2409 7.55078C36.3659 7.41016 36.4714 7.26562 36.5573 7.11719C36.6433 6.96875 36.6862 6.83594 36.6862 6.71875ZM38.7605 9.47266C38.7605 9.40234 38.7605 9.34766 38.7605 9.30859C38.7605 9.26953 38.7644 9.23438 38.7722 9.20312C38.7878 9.16406 38.8073 9.125 38.8308 9.08594C38.8542 9.04688 38.8855 8.99609 38.9245 8.93359C38.987 8.82422 39.1042 8.63281 39.2761 8.35938C39.448 8.08594 39.6316 7.79688 39.8269 7.49219C40.0222 7.1875 40.2058 6.89844 40.3777 6.625C40.5573 6.35156 40.6823 6.16016 40.7527 6.05078C40.7605 6.04297 40.78 6.03906 40.8112 6.03906C40.8503 6.03906 40.8777 6.03906 40.8933 6.03906C40.9089 6.03906 40.9362 6.03906 40.9753 6.03906C41.0144 6.03906 41.0378 6.04297 41.0456 6.05078C41.0534 6.05859 41.0691 6.07812 41.0925 6.10938C41.1237 6.14062 41.155 6.17578 41.1862 6.21484C41.2253 6.24609 41.2566 6.27734 41.28 6.30859C41.3112 6.33984 41.3347 6.35547 41.3503 6.35547C41.4206 6.35547 41.4948 6.33203 41.573 6.28516C41.6511 6.23828 41.7292 6.1875 41.8073 6.13281C41.8933 6.07031 41.9792 6.01562 42.0652 5.96875C42.1511 5.92188 42.2409 5.89844 42.3347 5.89844C42.4362 5.89844 42.53 5.92188 42.6159 5.96875C42.7019 6.01562 42.7761 6.07422 42.8386 6.14453C42.9011 6.21484 42.948 6.29297 42.9792 6.37891C43.0183 6.46484 43.0378 6.55078 43.0378 6.63672C43.0378 6.81641 43.0105 6.98828 42.9558 7.15234C42.9089 7.31641 42.8542 7.48047 42.7917 7.64453C42.7292 7.80078 42.6706 7.96094 42.6159 8.125C42.5691 8.28125 42.5456 8.44531 42.5456 8.61719C42.5456 8.78906 42.5652 8.91406 42.6042 8.99219C42.6433 9.0625 42.7527 9.09766 42.9323 9.09766C43.1433 9.09766 43.3425 9.06641 43.53 9.00391C43.7253 8.94141 43.9245 8.91016 44.1277 8.91016C44.1277 9.09766 44.0691 9.25391 43.9519 9.37891C43.8425 9.50391 43.7019 9.60547 43.53 9.68359C43.3659 9.75391 43.1862 9.80469 42.9909 9.83594C42.8034 9.85938 42.6316 9.87109 42.4753 9.87109C42.1784 9.87109 41.9597 9.78906 41.8191 9.625C41.6862 9.45312 41.6198 9.22656 41.6198 8.94531C41.6198 8.75781 41.6511 8.58203 41.7136 8.41797C41.7839 8.25391 41.8581 8.09375 41.9362 7.9375C42.0222 7.78125 42.1003 7.625 42.1706 7.46875C42.2409 7.3125 42.2761 7.14453 42.2761 6.96484C42.2761 6.91797 42.2683 6.85547 42.2527 6.77734C42.237 6.69922 42.1862 6.66016 42.1003 6.66016C41.8425 6.66016 41.6081 6.74219 41.3972 6.90625C41.1941 7.07031 41.0066 7.27734 40.8347 7.52734C40.6706 7.77734 40.5183 8.04688 40.3777 8.33594C40.2448 8.625 40.1159 8.89453 39.9909 9.14453C39.8737 9.39453 39.7605 9.60156 39.6511 9.76562C39.5417 9.92969 39.4284 10.0117 39.3112 10.0117C39.1472 10.0117 39.0144 9.96094 38.9128 9.85938C38.8112 9.75781 38.7605 9.62891 38.7605 9.47266ZM43.7527 8.86328C43.7527 8.63672 43.7956 8.41016 43.8816 8.18359C43.9675 7.95703 44.0691 7.73438 44.1862 7.51562C44.3034 7.28906 44.4206 7.06641 44.5378 6.84766C44.6628 6.62891 44.7566 6.41406 44.8191 6.20312C44.6706 6.28906 44.5417 6.33984 44.4323 6.35547C44.3308 6.36328 44.2058 6.36719 44.0573 6.36719C44.0417 6.36719 43.9909 6.36719 43.905 6.36719C43.8269 6.35938 43.7761 6.35547 43.7527 6.35547C43.7995 6.18359 43.8855 6.03125 44.0105 5.89844C44.1355 5.75781 44.2761 5.64062 44.4323 5.54688C44.5964 5.44531 44.7644 5.36328 44.9362 5.30078C45.1159 5.23047 45.2761 5.17578 45.4167 5.13672C45.6511 4.76953 45.8425 4.40234 45.9909 4.03516C46.1394 3.66016 46.2878 3.29688 46.4362 2.94531C46.5925 2.58594 46.7722 2.24609 46.9753 1.92578C47.1862 1.59766 47.4675 1.29688 47.8191 1.02344L47.8777 1.46875L46.4128 4.90234C46.4987 4.87891 46.6042 4.85547 46.7292 4.83203C46.8542 4.80859 46.9792 4.78516 47.1042 4.76172C47.237 4.73828 47.362 4.71875 47.4792 4.70312C47.6042 4.67969 47.7097 4.65625 47.7956 4.63281C47.8034 4.63281 47.8269 4.63281 47.8659 4.63281C47.905 4.625 47.9362 4.62109 47.9597 4.62109C48.0691 4.62109 48.1589 4.64062 48.2292 4.67969C48.2995 4.71875 48.3581 4.80469 48.405 4.9375C47.8737 5.09375 47.3933 5.25781 46.9636 5.42969C46.5339 5.60156 46.1589 5.82812 45.8386 6.10938C45.5261 6.38281 45.2683 6.73438 45.0652 7.16406C44.8698 7.58594 44.7331 8.12891 44.655 8.79297C44.655 8.93359 44.6628 9.0625 44.6784 9.17969C44.6941 9.29688 44.7917 9.36719 44.9714 9.39062C45.1511 9.39062 45.3191 9.35547 45.4753 9.28516C45.6316 9.21484 45.7839 9.14062 45.9323 9.0625C46.0808 8.97656 46.2292 8.89844 46.3777 8.82812C46.5339 8.75781 46.7019 8.72266 46.8816 8.72266C46.8816 8.91016 46.7995 9.08203 46.6355 9.23828C46.4714 9.39453 46.2722 9.53125 46.0378 9.64844C45.8112 9.76562 45.5769 9.85547 45.3347 9.91797C45.0925 9.98047 44.8933 10.0117 44.737 10.0117C44.5808 10.0117 44.4402 9.98047 44.3152 9.91797C44.1902 9.85547 44.0847 9.77344 43.9987 9.67188C43.9206 9.5625 43.8581 9.4375 43.8112 9.29688C43.7722 9.15625 43.7527 9.01172 43.7527 8.86328ZM46.987 9.23828C47.0573 8.79297 47.1902 8.38281 47.3855 8.00781C47.5808 7.63281 47.8034 7.30859 48.0534 7.03516C48.3112 6.75391 48.5886 6.52344 48.8855 6.34375C49.1823 6.16406 49.4714 6.05078 49.7527 6.00391C50.0339 5.94922 50.2917 5.96094 50.5261 6.03906C50.7683 6.11719 50.9636 6.27344 51.112 6.50781C51.112 6.6875 51.0691 6.85938 50.9831 7.02344C50.905 7.1875 50.8152 7.35156 50.7136 7.51562C50.6198 7.67969 50.53 7.84766 50.4441 8.01953C50.3659 8.19141 50.3269 8.375 50.3269 8.57031C50.3269 8.77344 50.3698 8.9375 50.4558 9.0625C50.5495 9.17969 50.7097 9.23828 50.9362 9.23828C51.1237 9.23828 51.3034 9.21094 51.4753 9.15625C51.655 9.10156 51.8347 9.07422 52.0144 9.07422C52.0456 9.07422 52.0964 9.07812 52.1667 9.08594C52.2448 9.08594 52.2956 9.08594 52.3191 9.08594C52.2253 9.21875 52.1042 9.33203 51.9558 9.42578C51.8073 9.51953 51.6511 9.60156 51.487 9.67188C51.323 9.73438 51.1511 9.78125 50.9714 9.8125C50.7995 9.84375 50.6394 9.85938 50.4909 9.85938C50.3503 9.85938 50.2253 9.82812 50.1159 9.76562C50.0066 9.70312 49.9128 9.62109 49.8347 9.51953C49.7566 9.41797 49.6941 9.30469 49.6472 9.17969C49.6081 9.04688 49.5886 8.91797 49.5886 8.79297C49.4714 8.92578 49.3425 9.06641 49.2019 9.21484C49.0691 9.35547 48.9245 9.48438 48.7683 9.60156C48.6198 9.71875 48.4558 9.81641 48.2761 9.89453C48.1042 9.97266 47.9245 10.0117 47.737 10.0117C47.5339 10.0117 47.3581 9.9375 47.2097 9.78906C47.0612 9.63281 46.987 9.44922 46.987 9.23828ZM47.7605 8.875C47.7605 8.9375 47.7605 9.00781 47.7605 9.08594C47.7683 9.16406 47.8191 9.21484 47.9128 9.23828C48.1081 9.19141 48.3308 9.08984 48.5808 8.93359C48.8308 8.76953 49.0652 8.58203 49.2839 8.37109C49.5027 8.15234 49.6862 7.92188 49.8347 7.67969C49.9831 7.42969 50.0573 7.19141 50.0573 6.96484C50.0573 6.94922 50.0534 6.92578 50.0456 6.89453C50.0456 6.85547 50.0456 6.82812 50.0456 6.8125C49.78 6.8125 49.5105 6.86719 49.237 6.97656C48.9636 7.08594 48.7175 7.23828 48.4987 7.43359C48.28 7.62109 48.1003 7.83984 47.9597 8.08984C47.8269 8.33984 47.7605 8.60156 47.7605 8.875ZM51.9089 8.93359C51.9089 8.87891 51.9128 8.79688 51.9206 8.6875C51.9362 8.57031 51.9519 8.45703 51.9675 8.34766C51.9831 8.23828 51.9987 8.14062 52.0144 8.05469C52.03 7.96094 52.0456 7.90234 52.0612 7.87891L54.1941 3.61328C54.2253 3.55078 54.2839 3.46484 54.3698 3.35547C54.4636 3.23828 54.5612 3.12109 54.6628 3.00391C54.7722 2.87891 54.8777 2.76562 54.9792 2.66406C55.0886 2.55469 55.1784 2.46875 55.2487 2.40625C55.3034 2.42188 55.3425 2.44922 55.3659 2.48828C55.3894 2.52734 55.405 2.57422 55.4128 2.62891C55.4206 2.67578 55.4206 2.72266 55.4128 2.76953C55.4128 2.81641 55.4128 2.85547 55.4128 2.88672C55.4128 2.92578 55.4128 2.98047 55.4128 3.05078C55.4128 3.12109 55.4089 3.15625 55.4011 3.15625C55.323 3.36719 55.2019 3.61719 55.0378 3.90625C54.8737 4.19531 54.6902 4.50391 54.487 4.83203C54.2839 5.16016 54.073 5.50391 53.8542 5.86328C53.6433 6.21484 53.448 6.56641 53.2683 6.91797C53.0964 7.26172 52.9519 7.59375 52.8347 7.91406C52.7253 8.23438 52.6706 8.52734 52.6706 8.79297C52.6706 8.93359 52.7097 9.04688 52.7878 9.13281C52.8737 9.21094 52.9636 9.28125 53.0573 9.34375C53.1511 9.40625 53.237 9.46875 53.3152 9.53125C53.4011 9.59375 53.4441 9.67969 53.4441 9.78906C53.4441 9.85938 53.4128 9.91406 53.3503 9.95312C53.2878 9.98438 53.2136 10 53.1277 10C52.7995 10 52.5144 9.91016 52.2722 9.73047C52.03 9.54297 51.9089 9.27734 51.9089 8.93359ZM56.4675 9.03906C56.5456 9.03906 56.6433 9.03906 56.7605 9.03906C56.8855 9.03906 57.0066 9.05078 57.1237 9.07422C57.2409 9.09766 57.3425 9.13672 57.4284 9.19141C57.5144 9.24609 57.5573 9.33203 57.5573 9.44922C57.5573 9.62109 57.5105 9.75781 57.4167 9.85938C57.323 9.96094 57.1902 10.0117 57.0183 10.0117C56.9948 10.0117 56.9519 10.0117 56.8894 10.0117C56.8347 10.0117 56.7761 10.0078 56.7136 10C56.6511 9.98438 56.5925 9.96484 56.5378 9.94141C56.4909 9.91797 56.4675 9.88672 56.4675 9.84766V9.03906Z" fill="black"/>
<path d="M59.4909 9.70703C59.4909 9.52734 59.53 9.33984 59.6081 9.14453C59.6862 8.94141 59.7566 8.76953 59.8191 8.62891C59.8737 8.51953 59.9597 8.35156 60.0769 8.125C60.1941 7.89062 60.3269 7.62891 60.4753 7.33984C60.6237 7.05078 60.78 6.74609 60.9441 6.42578C61.1159 6.10547 61.2761 5.80078 61.4245 5.51172C61.573 5.22266 61.7058 4.96484 61.823 4.73828C61.948 4.50391 62.0378 4.33203 62.0925 4.22266C62.1003 4.21484 62.1159 4.1875 62.1394 4.14062C62.1706 4.09375 62.2019 4.04688 62.2331 4C62.2722 3.95312 62.3073 3.91016 62.3386 3.87109C62.3698 3.82422 62.3894 3.79297 62.3972 3.77734C62.405 3.76172 62.4011 3.74609 62.3855 3.73047C62.3698 3.71484 62.362 3.69922 62.362 3.68359C62.0261 3.72266 61.6745 3.77344 61.3073 3.83594C60.948 3.89844 60.5886 3.97266 60.2292 4.05859C59.8777 4.13672 59.5378 4.23047 59.2097 4.33984C58.8816 4.44141 58.5847 4.55859 58.3191 4.69141C58.2331 4.69141 58.155 4.67578 58.0847 4.64453C58.0144 4.61328 57.9792 4.55078 57.9792 4.45703V4.42188C57.9792 4.41406 57.9831 4.40234 57.9909 4.38672C58.0066 4.34766 58.03 4.28906 58.0612 4.21094C58.1003 4.125 58.1277 4.07812 58.1433 4.07031L59.2097 3.61328L66.3464 1.79688C66.4323 2.01562 66.4245 2.19141 66.323 2.32422C66.2292 2.44922 66.0769 2.55469 65.8659 2.64062C65.655 2.71875 65.4089 2.78906 65.1277 2.85156C64.8542 2.90625 64.5769 2.97656 64.2956 3.0625C64.0222 3.14062 63.7683 3.25 63.5339 3.39062C63.2995 3.52344 63.1237 3.70312 63.0066 3.92969C62.4987 4.9375 61.9753 5.94141 61.4362 6.94141C60.905 7.94141 60.4167 8.96094 59.9714 10C59.9636 10 59.948 10 59.9245 10C59.9089 10.0078 59.8972 10.0117 59.8894 10.0117C59.7878 10.0117 59.6941 9.98828 59.6081 9.94141C59.53 9.89453 59.4909 9.81641 59.4909 9.70703ZM66.4753 9.09766C66.4753 8.86328 66.5222 8.64844 66.6159 8.45312C66.7175 8.25 66.8269 8.05859 66.9441 7.87891C67.0612 7.69922 67.1667 7.51953 67.2605 7.33984C67.362 7.16016 67.4128 6.96875 67.4128 6.76562C67.4128 6.71875 67.4089 6.66406 67.4011 6.60156C67.4011 6.53125 67.3933 6.46484 67.3777 6.40234C67.3698 6.33984 67.3464 6.28906 67.3073 6.25C67.2761 6.20312 67.2331 6.17969 67.1784 6.17969C67.1706 6.17969 67.155 6.18359 67.1316 6.19141C67.1159 6.19141 67.1081 6.19531 67.1081 6.20312C66.9987 6.35156 66.8659 6.51953 66.7097 6.70703C66.5612 6.88672 66.4011 7.06641 66.2292 7.24609C66.0573 7.42578 65.8894 7.59766 65.7253 7.76172C65.5612 7.92578 65.4128 8.0625 65.28 8.17188C65.1862 8.25781 65.0573 8.375 64.8933 8.52344C64.737 8.67188 64.5769 8.82031 64.4128 8.96875C64.2566 9.10938 64.1159 9.23438 63.9909 9.34375C63.8737 9.45312 63.8073 9.50781 63.7917 9.50781L63.2527 9.05078C63.323 9.05078 63.3933 9.03516 63.4636 9.00391C63.5261 8.97266 63.5886 8.9375 63.6511 8.89844C64.1198 8.58594 64.5417 8.22656 64.9167 7.82031C65.2995 7.41406 65.6745 6.97656 66.0417 6.50781C66.0573 6.48438 66.0964 6.41797 66.1589 6.30859C66.2292 6.19141 66.3034 6.0625 66.3816 5.92188C66.4597 5.77344 66.5378 5.62891 66.6159 5.48828C66.6941 5.33984 66.7527 5.22266 66.7917 5.13672C66.8386 5.03516 66.8659 4.95312 66.8737 4.89062C66.8894 4.82812 66.9011 4.78125 66.9089 4.75C66.9245 4.71094 66.948 4.68359 66.9792 4.66797C67.0105 4.65234 67.0769 4.64453 67.1784 4.64453C67.1941 4.64453 67.2292 4.64844 67.2839 4.65625C67.3464 4.66406 67.3855 4.67188 67.4011 4.67969C67.5027 4.89062 67.5925 5.07812 67.6706 5.24219C67.7487 5.40625 67.8152 5.5625 67.8698 5.71094C67.9245 5.85156 67.9636 5.99609 67.987 6.14453C68.0183 6.29297 68.0339 6.45703 68.0339 6.63672C67.9323 6.89453 67.8191 7.16016 67.6941 7.43359C67.5691 7.69922 67.4636 7.95312 67.3777 8.19531C67.2917 8.4375 67.237 8.65625 67.2136 8.85156C67.198 9.04688 67.2409 9.20312 67.3425 9.32031C67.4519 9.42969 67.6316 9.48828 67.8816 9.49609C68.1394 9.50391 68.5027 9.4375 68.9714 9.29688C69.0964 9.35938 69.1081 9.4375 69.0066 9.53125C68.905 9.61719 68.7487 9.69922 68.5378 9.77734C68.3347 9.85547 68.1081 9.92188 67.8581 9.97656C67.6159 10.0234 67.4128 10.0352 67.2487 10.0117C67.1003 10.0117 66.9753 9.98828 66.8737 9.94141C66.78 9.88672 66.7019 9.81641 66.6394 9.73047C66.5847 9.64453 66.5417 9.54688 66.5105 9.4375C66.487 9.32812 66.4753 9.21484 66.4753 9.09766ZM68.3737 9.23828C68.3737 9.12891 68.3855 9.03516 68.4089 8.95703C68.4323 8.87109 68.4753 8.76172 68.5378 8.62891C68.5925 8.55078 68.6902 8.40234 68.8308 8.18359C68.9792 7.96484 69.1316 7.73438 69.2878 7.49219C69.4519 7.25 69.6042 7.02344 69.7448 6.8125C69.8933 6.59375 69.9948 6.44141 70.0495 6.35547C70.1198 6.25391 70.1745 6.19922 70.2136 6.19141C70.2527 6.18359 70.3269 6.17969 70.4362 6.17969C70.5066 6.17969 70.5808 6.18359 70.6589 6.19141C70.7448 6.19922 70.7995 6.25391 70.823 6.35547C70.7136 6.62109 70.5652 6.875 70.3777 7.11719C70.198 7.35156 70.0183 7.58594 69.8386 7.82031C69.6667 8.05469 69.5144 8.29688 69.3816 8.54688C69.2487 8.78906 69.1823 9.05078 69.1823 9.33203C69.2136 9.33203 69.2605 9.33594 69.323 9.34375C69.3933 9.35156 69.4675 9.35938 69.5456 9.36719C69.6237 9.375 69.6941 9.38281 69.7566 9.39062C69.8269 9.39844 69.8777 9.39844 69.9089 9.39062C69.9558 9.38281 70.0339 9.36719 70.1433 9.34375C70.2605 9.3125 70.3816 9.28125 70.5066 9.25C70.6394 9.21875 70.7644 9.1875 70.8816 9.15625C70.9987 9.125 71.0808 9.10156 71.1277 9.08594C71.1277 9.10156 71.1277 9.12891 71.1277 9.16797C71.1355 9.19922 71.1394 9.22266 71.1394 9.23828C71.1394 9.39453 71.0652 9.52344 70.9167 9.625C70.7761 9.72656 70.6081 9.80859 70.4128 9.87109C70.2253 9.92578 70.03 9.96484 69.8269 9.98828C69.6316 10.0039 69.4792 10.0117 69.3698 10.0117C69.2527 10.0117 69.1316 10 69.0066 9.97656C68.8894 9.94531 68.7839 9.89844 68.6902 9.83594C68.5964 9.77344 68.5183 9.69531 68.4558 9.60156C68.4011 9.5 68.3737 9.37891 68.3737 9.23828ZM71.7839 2.37109C71.8855 2.37109 71.9792 2.375 72.0652 2.38281C72.1511 2.39062 72.2253 2.41016 72.2878 2.44141C72.3503 2.47266 72.4011 2.51953 72.4402 2.58203C72.4792 2.64453 72.4987 2.73047 72.4987 2.83984C72.4987 2.88672 72.4987 2.9375 72.4987 2.99219C72.4987 3.04688 72.4909 3.10156 72.4753 3.15625C72.4675 3.20312 72.448 3.24609 72.4167 3.28516C72.3855 3.31641 72.3347 3.33203 72.2644 3.33203C72.155 3.33203 72.0652 3.29297 71.9948 3.21484C71.9323 3.13672 71.8855 3.04688 71.8542 2.94531C71.823 2.83594 71.8034 2.72656 71.7956 2.61719C71.7878 2.50781 71.7839 2.42578 71.7839 2.37109ZM69.78 13.2812C69.78 13.2734 69.7839 13.2578 69.7917 13.2344C69.7917 13.2109 69.7917 13.1953 69.7917 13.1875C69.7995 13.1641 69.8112 13.1289 69.8269 13.082C69.8425 13.043 69.8581 13 69.8737 12.9531C69.8894 12.9062 69.905 12.8594 69.9206 12.8125C69.9362 12.7734 69.948 12.7461 69.9558 12.7305C70.0027 12.6211 70.0808 12.4453 70.1902 12.2031C70.2995 11.9688 70.4245 11.6992 70.5652 11.3945C70.7058 11.0977 70.8542 10.7852 71.0105 10.457C71.1589 10.1289 71.3034 9.81641 71.4441 9.51953C71.5847 9.21484 71.7097 8.94531 71.8191 8.71094C71.9362 8.46875 72.0222 8.28906 72.0769 8.17188C72.1784 8.00781 72.3191 7.81641 72.4987 7.59766C72.6862 7.37891 72.8933 7.15625 73.1198 6.92969C73.3464 6.70312 73.5886 6.48438 73.8464 6.27344C74.112 6.05469 74.3698 5.86328 74.6198 5.69922C74.8777 5.52734 75.1277 5.39062 75.3698 5.28906C75.612 5.17969 75.8269 5.125 76.0144 5.125C76.2956 5.125 76.4948 5.17578 76.612 5.27734C76.7292 5.37891 76.7878 5.58594 76.7878 5.89844C76.7878 6.23438 76.7214 6.57031 76.5886 6.90625C76.4636 7.23438 76.2917 7.54688 76.073 7.84375C75.8542 8.14062 75.5964 8.41016 75.2995 8.65234C75.0105 8.89453 74.7019 9.09375 74.3737 9.25C74.0534 9.40625 73.7214 9.51562 73.3777 9.57812C73.0339 9.63281 72.7019 9.62109 72.3816 9.54297L72.2292 9.69531L70.7058 13.4922C70.6823 13.5625 70.6159 13.6055 70.5066 13.6211C70.3972 13.6445 70.3073 13.6562 70.237 13.6562C70.1355 13.6562 70.0339 13.6211 69.9323 13.5508C69.8308 13.4883 69.78 13.3984 69.78 13.2812ZM75.2644 7.57422C75.6316 7.18359 75.8698 6.875 75.9792 6.64844C76.0886 6.41406 76.112 6.25 76.0495 6.15625C75.987 6.0625 75.862 6.02734 75.6745 6.05078C75.487 6.07422 75.2761 6.14062 75.0417 6.25C74.8073 6.35938 74.5691 6.50391 74.3269 6.68359C74.0925 6.86328 73.8972 7.05859 73.7409 7.26953C73.6706 7.34766 73.5847 7.45312 73.4831 7.58594C73.3816 7.71094 73.28 7.83984 73.1784 7.97266C73.0847 8.09766 73.0027 8.21094 72.9323 8.3125C72.862 8.41406 72.8269 8.47266 72.8269 8.48828V8.73438C73.3659 8.73438 73.8269 8.65625 74.2097 8.5C74.5925 8.33594 74.9441 8.02734 75.2644 7.57422Z" fill="#E44848"/>
</svg>
